<!DOCTYPE svg PUBLIC "-//W3C//DTD SVG 20010904//EN" "http://www.w3.org/TR/2001/REC-SVG-20010904/DTD/svg10.dtd">
<svg version="1.0" xmlns="http://www.w3.org/2000/svg" width="200px" height="200px" viewBox="0 0 2000 2000" preserveAspectRatio="xMidYMid meet">
<g id="layer101" fill="#000000" stroke="none">
<path d="M1330 1417 l0 -74 35 -1 c28 -1 38 3 45 21 8 21 9 21 9 1 1 -17 8 -21 36 -22 l35 -1 0 54 c0 30 -4 55 -10 55 -5 0 -10 -21 -10 -46 0 -40 -2 -45 -15 -34 -8 7 -15 28 -15 46 0 19 -4 34 -10 34 -5 0 -10 -8 -10 -17 0 -15 -1 -15 -14 2 -8 12 -20 16 -35 12 -17 -4 -21 -1 -21 19 0 13 -4 24 -10 24 -6 0 -10 -31 -10 -73z m60 -36 c-9 -18 -14 -20 -26 -10 -17 14 -18 31 -2 47 20 20 43 -10 28 -37z"/>
<path d="M100 1435 c0 -9 11 -33 25 -53 14 -20 25 -40 25 -44 0 -5 -11 -8 -25 -8 -14 0 -25 -4 -25 -10 0 -5 20 -10 45 -10 25 0 45 2 45 5 0 3 -13 27 -30 53 -16 27 -30 52 -30 56 0 3 13 6 29 6 26 0 30 -3 29 -30 -2 -52 48 -82 71 -42 9 14 10 15 11 1 0 -19 60 -24 72 -6 11 18 10 97 -2 97 -5 0 -10 -18 -10 -39 0 -22 -4 -42 -9 -46 -13 -7 -31 27 -31 59 0 14 -4 26 -10 26 -5 0 -10 -11 -10 -25 0 -21 -5 -25 -30 -25 -30 0 -40 13 -20 25 6 4 18 1 27 -6 13 -11 15 -11 12 6 -4 18 -14 20 -82 23 -64 2 -77 0 -77 -13z m143 -60 c-6 -17 -25 -15 -31 3 -2 7 5 12 17 12 14 0 19 -5 14 -15z"/>
<path d="M367 1443 c-5 -8 -11 -86 -8 -115 1 -21 21 -24 21 -4 0 8 6 17 13 20 10 5 10 7 0 12 -15 7 -18 74 -3 74 6 0 10 5 10 10 0 12 -27 14 -33 3z"/>
<path d="M410 1397 c0 -46 3 -53 20 -54 21 -2 27 11 10 22 -5 3 -10 24 -10 46 0 21 -4 39 -10 39 -5 0 -10 -24 -10 -53z"/>
<path d="M450 1435 c0 -8 5 -15 10 -15 6 0 10 7 10 15 0 8 -4 15 -10 15 -5 0 -10 -7 -10 -15z"/>
<path d="M518 1398 c-6 -71 5 -98 37 -98 16 0 25 6 25 16 0 11 -6 14 -20 9 -11 -4 -20 -2 -20 4 0 6 9 11 20 11 18 0 20 7 20 55 0 30 -4 55 -10 55 -5 0 -10 -20 -10 -45 0 -25 -4 -45 -10 -45 -5 0 -10 20 -10 45 0 62 -17 57 -22 -7z"/>
<path d="M590 1397 l0 -54 34 -1 c27 -1 35 3 40 21 9 35 7 87 -4 87 -5 0 -10 -13 -10 -29 0 -16 -3 -37 -6 -45 -10 -27 -34 1 -34 40 0 19 -4 34 -10 34 -5 0 -10 -24 -10 -53z"/>
<path d="M681 1434 c0 -11 3 -14 6 -6 3 7 2 16 -1 19 -3 4 -6 -2 -5 -13z"/>
<path d="M761 1441 c-18 -12 -29 -131 -12 -131 6 0 11 18 11 43 0 24 7 52 15 63 15 19 15 19 30 0 8 -11 15 -39 15 -63 0 -24 5 -43 10 -43 6 0 10 21 10 48 0 73 -36 110 -79 83z"/>
<path d="M850 1396 l0 -54 33 1 c31 2 32 3 35 55 2 31 -1 52 -7 52 -6 0 -11 -21 -11 -46 0 -40 -2 -45 -15 -34 -8 7 -15 28 -15 46 0 19 -4 34 -10 34 -5 0 -10 -24 -10 -54z"/>
<path d="M938 1403 c-2 -79 3 -105 19 -89 4 4 6 32 5 62 -2 52 -1 55 18 49 14 -5 20 -2 20 9 0 11 -9 16 -30 16 -29 0 -30 -2 -32 -47z"/>
<path d="M1047 1443 c-15 -14 -6 -23 18 -17 14 3 25 2 25 -3 0 -6 -11 -15 -25 -21 -14 -6 -25 -18 -25 -26 0 -33 58 -48 68 -17 3 10 0 12 -13 8 -28 -11 -40 5 -14 19 22 11 25 10 36 -17 22 -53 73 -32 73 30 l0 35 24 -34 24 -35 -24 -3 c-37 -5 -28 -22 11 -22 41 0 43 11 15 58 -20 32 -20 32 0 32 11 0 20 4 20 10 0 5 -29 9 -65 9 -47 -1 -67 -5 -73 -16 -8 -13 -10 -13 -15 1 -6 16 -47 22 -60 9z m121 -37 c2 -9 1 -24 -3 -33 -10 -27 -39 8 -30 36 8 25 28 23 33 -3z"/>
<path d="M1270 1435 c0 -8 5 -15 10 -15 6 0 10 7 10 15 0 8 -4 15 -10 15 -5 0 -10 -7 -10 -15z"/>
<path d="M1521 1428 c-16 -43 -23 -88 -13 -88 5 0 14 15 19 33 l10 32 13 -32 c6 -18 16 -33 21 -33 11 0 12 -3 -6 58 -17 56 -31 65 -44 30z"/>
<path d="M1570 1435 c0 -8 5 -15 10 -15 6 0 10 7 10 15 0 8 -4 15 -10 15 -5 0 -10 -7 -10 -15z"/>
<path d="M1641 1437 c-14 -18 -2 -30 15 -16 15 12 44 5 44 -10 0 -6 -12 -16 -27 -23 -21 -10 -28 -20 -28 -43 0 -27 3 -30 33 -30 17 0 32 5 32 10 -1 6 -12 9 -25 7 -34 -5 -32 21 2 37 25 11 29 10 42 -8 18 -28 59 -27 71 2 7 18 9 15 9 -20 1 -24 6 -43 11 -43 6 0 10 19 10 43 l0 42 20 -25 c22 -28 37 -22 20 9 -8 16 -7 27 4 48 8 16 15 22 16 16 0 -18 20 -16 20 2 0 23 -47 19 -55 -5 -3 -11 -11 -20 -16 -20 -5 0 -9 9 -9 20 0 11 -4 20 -10 20 -5 0 -10 -11 -10 -25 0 -22 -4 -25 -35 -25 -26 0 -33 3 -29 15 7 18 34 20 34 3 0 -9 3 -9 11 -1 6 6 8 16 5 22 -11 17 -54 13 -64 -5 -8 -15 -10 -15 -15 0 -8 20 -60 22 -76 3z m139 -62 c-7 -8 -16 -15 -20 -15 -4 0 -10 7 -14 15 -4 11 2 15 21 15 21 0 24 -2 13 -15z"/>
<path d="M1470 1315 c0 -8 5 -15 10 -15 6 0 10 7 10 15 0 8 -4 15 -10 15 -5 0 -10 -7 -10 -15z"/>
<path d="M1150 1196 l0 -83 55 -2 c43 -1 59 3 76 20 27 27 21 67 -14 93 -23 17 -32 19 -57 9 -29 -11 -30 -10 -30 18 0 19 -5 29 -15 29 -12 0 -15 -16 -15 -84z m114 -8 c8 -14 6 -22 -11 -40 -19 -19 -26 -20 -48 -10 -44 20 -25 76 24 70 13 -2 29 -11 35 -20z"/>
<path d="M530 1223 c0 -10 26 -43 57 -75 l57 -58 -57 0 c-31 0 -57 -4 -57 -10 0 -6 33 -10 80 -10 44 0 80 3 80 7 0 4 -28 36 -62 70 l-62 63 62 0 c48 0 62 3 62 15 0 12 -16 15 -80 15 -69 0 -80 -2 -80 -17z"/>
<path d="M720 1186 c0 -34 -5 -56 -12 -59 -9 -4 -9 -8 -3 -14 6 -4 15 -17 21 -28 13 -22 65 -28 72 -7 2 7 -6 12 -22 12 -14 0 -26 5 -26 10 0 6 7 10 15 10 8 0 15 5 15 10 0 6 -7 10 -15 10 -12 0 -15 13 -15 55 0 42 -3 55 -15 55 -11 0 -15 -13 -15 -54z"/>
<path d="M853 1230 c-31 -13 -43 -41 -43 -104 0 -43 3 -56 15 -56 11 0 15 12 15 51 0 66 13 89 50 89 44 0 60 -23 60 -86 0 -41 4 -54 15 -54 23 0 21 111 -2 139 -20 24 -77 35 -110 21z"/>
<path d="M1021 1229 c-17 -7 -21 -13 -14 -20 8 -8 17 -7 32 1 23 12 65 4 56 -10 -3 -5 -24 -14 -45 -20 -43 -11 -53 -37 -26 -59 18 -15 88 -10 93 6 3 9 -6 12 -29 10 -45 -3 -51 15 -8 26 50 13 62 34 34 61 -17 18 -56 20 -93 5z"/>
<path d="M1355 1233 c-30 -8 -47 -25 -36 -36 5 -5 17 -4 30 3 29 15 86 9 86 -9 0 -9 -18 -19 -46 -26 -59 -16 -69 -22 -69 -45 0 -31 28 -50 73 -50 47 0 73 12 63 29 -5 7 -14 7 -31 -1 -28 -13 -78 -3 -72 15 2 7 23 19 48 27 24 8 50 19 57 23 16 11 15 42 -2 56 -17 14 -73 22 -101 14z"/>
</g>
<g id="layer102" fill="#bda0d9" stroke="none">
<path d="M943 1031 c-34 -16 -54 -38 -118 -135 -42 -64 -75 -124 -73 -134 2 -10 14 -18 30 -20 22 -3 35 8 79 60 29 35 68 85 87 111 34 48 54 58 32 17 -20 -38 -3 -33 36 9 42 48 60 48 20 1 -48 -57 -29 -69 24 -15 18 19 36 32 39 30 2 -3 -13 -23 -34 -45 -47 -48 -43 -59 9 -24 59 40 53 22 -9 -26 -31 -24 -54 -48 -52 -54 2 -6 23 -13 48 -16 42 -5 42 -6 14 -12 -16 -4 -56 -10 -87 -13 l-58 -6 0 -84 c0 -99 5 -115 35 -115 30 0 34 8 42 72 l7 53 15 -79 c17 -82 33 -105 66 -92 15 6 17 15 12 66 -4 33 -9 73 -12 88 -3 15 5 -2 18 -38 20 -56 27 -65 50 -68 39 -5 43 18 19 104 -11 41 -18 74 -16 74 2 0 13 -18 24 -40 14 -27 27 -40 41 -40 33 0 33 27 0 113 -17 45 -40 112 -51 148 -11 36 -30 75 -42 86 -49 46 -125 55 -195 24z"/>
</g>


</svg>