<svg id="Layer_3" enable-background="new 0 0 64 64" height="512" viewBox="0 0 64 64" width="512" xmlns="http://www.w3.org/2000/svg"><g><path d="m13.374 3.361c-1.333.364-2.556.991-3.607 1.831.563.416 1.163.768 1.798 1.043.495-1.014 1.095-1.979 1.809-2.874z"/><path d="m17 19.012v2.465c.585-.721 1.086-1.496 1.505-2.309-.492-.094-.995-.143-1.505-.156z"/><path d="m10.049 14h-3.998c.203 2.04 1.023 3.9 2.269 5.394.769-.604 1.602-1.102 2.487-1.482-.418-1.255-.673-2.566-.758-3.912z"/><path d="m9.768 20.807c1.05.84 2.274 1.468 3.607 1.831-.715-.895-1.314-1.86-1.808-2.875-.636.276-1.236.628-1.799 1.044z"/><path d="m15 21.477v-2.465c-.51.013-1.013.062-1.505.155.419.814.92 1.588 1.505 2.31z"/><path d="m19.951 14h-2.951v3.012c.78.017 1.546.114 2.29.285.355-1.059.579-2.163.661-3.297z"/><path d="m25.949 14h-3.998c-.086 1.346-.34 2.657-.759 3.912.885.38 1.719.878 2.487 1.482 1.247-1.494 2.067-3.354 2.27-5.394z"/><path d="m18.626 22.639c1.333-.364 2.556-.991 3.607-1.831-.563-.416-1.163-.768-1.798-1.043-.495 1.014-1.095 1.979-1.809 2.874z"/><path d="m21.951 12h3.998c-.203-2.04-1.023-3.9-2.269-5.394-.769.604-1.602 1.102-2.487 1.482.418 1.255.673 2.566.758 3.912z"/><path d="m19.29 8.703c-.744.171-1.51.269-2.29.285v3.012h2.951c-.082-1.134-.306-2.238-.661-3.297z"/><path d="m17 4.523v2.465c.51-.013 1.013-.062 1.505-.155-.419-.814-.92-1.588-1.505-2.31z"/><path d="m22.232 5.193c-1.05-.84-2.274-1.468-3.607-1.831.715.895 1.314 1.86 1.808 2.875.636-.276 1.236-.628 1.799-1.044z"/><path d="m10.807 8.088c-.885-.38-1.719-.879-2.487-1.482-1.246 1.494-2.066 3.354-2.269 5.394h3.998c.085-1.346.34-2.657.758-3.912z"/><path d="m53 24h-4c-.552 0-1-.448-1-1v-.586l-.293.293c-.391.391-1.023.391-1.414 0l-3-3c-.391-.391-.391-1.023 0-1.414l.293-.293h-.586c-.552 0-1-.448-1-1v-4c0-.552.448-1 1-1h.586l-.293-.293c-.252-.252-.324-.602-.251-.925-2.502-1.169-5.259-1.782-8.042-1.782-2.53 0-4.968.512-7.274 1.471.176.816.274 1.661.274 2.529 0 6.528-5.243 11.846-11.738 11.987-.159.995-.262 2.001-.262 3.013 0 7.197 4.004 13.692 10.451 16.95.337.17.549.516.549.893v3.157h2v-12.586l-1.715-1.715c-.391.188-.823.301-1.285.301-1.654 0-3-1.346-3-3s1.346-3 3-3 3 1.346 3 3c0 .462-.113.894-.301 1.285l2.008 2.008c.188.187.293.441.293.707v13h3v-20.142c-1.72-.447-3-2-3-3.858 0-2.206 1.794-4 4-4s4 1.794 4 4c0 1.858-1.28 3.411-3 3.858v20.142h2v-13c0-.266.105-.52.293-.707l2.008-2.008c-.188-.391-.301-.823-.301-1.285 0-1.654 1.346-3 3-3s3 1.346 3 3-1.346 3-3 3c-.462 0-.894-.113-1.285-.301l-1.715 1.715v12.586h3v-3.157c0-.377.212-.723.549-.893 6.447-3.258 10.451-9.753 10.451-16.95 0-1.414-.17-2.807-.475-4.17-.155.098-.328.17-.525.17z"/><circle cx="35" cy="25" r="2"/><circle cx="43" cy="32" r="1"/><circle cx="26" cy="32" r="1"/><circle cx="51" cy="15" r="2"/><path d="m57.706 14c-.442 0-.832-.291-.958-.715-.105-.353-.247-.703-.421-1.04-.2-.387-.127-.859.181-1.167l.078-.078-1.586-1.586-.079.079c-.307.308-.78.381-1.167.181-.337-.175-.687-.316-1.04-.421-.423-.127-.714-.517-.714-.959v-.294h-2v.294c0 .442-.291.832-.715.958-.353.105-.703.247-1.04.421-.388.199-.86.127-1.167-.181l-.078-.078-1.586 1.586.079.079c.308.308.381.78.181 1.167-.175.337-.316.687-.421 1.04-.127.423-.517.714-.959.714h-.294v2h.294c.442 0 .832.291.958.715.105.353.247.703.421 1.04.2.387.127.859-.181 1.167l-.078.078 1.586 1.586.079-.079c.308-.308.78-.381 1.167-.181.337.175.687.316 1.04.421.423.127.714.517.714.959v.294h2v-.294c0-.442.291-.832.715-.958.353-.105.703-.247 1.04-.421.387-.2.859-.128 1.167.181l.078.078 1.586-1.586-.079-.079c-.308-.308-.381-.78-.181-1.167.175-.337.316-.687.421-1.04.127-.423.517-.714.959-.714h.294v-2zm-6.706 5c-2.206 0-4-1.794-4-4s1.794-4 4-4 4 1.794 4 4-1.794 4-4 4z"/><path d="m29 51h12v2h-12z"/><path d="m15 6.988v-2.465c-.585.721-1.086 1.496-1.505 2.309.492.094.995.143 1.505.156z"/><path d="m12.71 17.297c.745-.171 1.51-.268 2.29-.285v-3.012h-2.951c.082 1.134.306 2.238.661 3.297z"/><path d="m12.049 12h2.951v-3.012c-.78-.017-1.546-.114-2.29-.285-.355 1.059-.579 2.163-.661 3.297z"/><path d="m31 60c0 .552.449 1 1 1h6c.551 0 1-.448 1-1v-1h-8z"/><path d="m31 55h8v2h-8z"/></g></svg>